<?xml version="1.0" encoding="utf-8"?>
<!-- Generator: Adobe Illustrator 27.0.0, SVG Export Plug-In . SVG Version: 6.00 Build 0)  -->
<svg version="1.1" id="Layer_1" xmlns="http://www.w3.org/2000/svg" xmlns:xlink="http://www.w3.org/1999/xlink" x="0px" y="0px"
	 viewBox="0 0 731.7 511.1" style="enable-background:new 0 0 731.7 511.1;" xml:space="preserve">
<style type="text/css">
	.st0{fill:#5C45FF;}
	.st1{fill:#351CEC;}
	.st2{fill:#3F3D58;}
	.st3{fill:#F8A8AB;}
	.st4{fill:#2F2E43;}
	.st5{fill:#E2E3E4;}
	.st6{fill:#DFDFE0;}
	.st7{fill:#FDF90A;}
	.st8{opacity:0.2;fill:#272223;enable-background:new    ;}
</style>
<circle class="st0" cx="460.8" cy="190.6" r="155.2"/>
<circle class="st1" cx="335.7" cy="309.3" r="196.6"/>
<path class="st2" d="M0,509.7c0,0.7,0.5,1.2,1.2,1.2h729.3c0.7,0,1.2-0.5,1.2-1.2s-0.5-1.2-1.2-1.2H1.2C0.5,508.5,0,509,0,509.7z"/>
<polygon class="st3" points="440.6,79.1 466.2,87.5 466.2,50.7 443,50.7 "/>
<circle class="st3" cx="463" cy="35.3" r="25.5"/>
<path class="st4" d="M456.5,37.3l3.5,4.3l6.4-11.1c0,0,8.1,0.4,8.1-5.6s7.5-6.2,7.5-6.2s10.5-18.4-11.3-13.6c0,0-15.2-10.4-22.7-1.5
	c0,0-23.1,11.6-16.5,31.9l11,20.9l2.5-4.7C445,51.6,443.5,31.8,456.5,37.3L456.5,37.3L456.5,37.3z"/>
<rect x="432.9" y="461.8" class="st3" width="20.9" height="29.7"/>
<path class="st4" d="M451.5,508.5c-3.6,0.3-21.5,1.7-22.4-2.4c-0.8-3.8,0.4-7.7,0.6-8.2c1.7-17.1,2.4-17.3,2.8-17.4
	c0.6-0.2,2.4,0.7,5.3,2.5l0.2,0.1l0,0.2c0,0.3,1.3,6.6,7.4,5.6c4.2-0.7,5.5-1.6,5.9-2c-0.4-0.2-0.8-0.4-1.1-0.9
	c-0.5-0.7-0.5-1.6-0.2-2.7c0.8-2.9,3.1-7.1,3.2-7.2l0.3-0.5l23.8,16.1l14.7,4.2c1.1,0.3,2,1.1,2.5,2.2l0,0c0.6,1.5,0.2,3.2-1,4.3
	c-2.7,2.4-8,6.5-13.5,7c-1.5,0.1-3.4,0.2-5.6,0.2C465.1,509.5,451.7,508.5,451.5,508.5L451.5,508.5L451.5,508.5z"/>
<path class="st4" d="M480.6,205.6l-54.9-2.8c0,0-8.4,31.9,2.2,65.2l1.3,200.3h31l29.3-206.6L480.6,205.6L480.6,205.6L480.6,205.6z"
	/>
<path class="st5" d="M471.4,72l-30.1-16c0,0-32.5,47.5-28,73.2c4.5,25.7,12.5,73.6,12.5,73.6l66.5,2.8l-11.6-94.3L471.4,72L471.4,72
	L471.4,72z"/>
<rect x="447.8" y="461.8" class="st3" width="20.9" height="29.7"/>
<path class="st4" d="M466.5,508.5c-3.6,0.3-21.5,1.7-22.4-2.4c-0.8-3.8,0.4-7.7,0.6-8.2c1.7-17.1,2.4-17.3,2.8-17.4
	c0.6-0.2,2.4,0.7,5.3,2.5l0.2,0.1l0,0.2c0,0.3,1.3,6.6,7.4,5.6c4.2-0.7,5.5-1.6,5.9-2c-0.4-0.2-0.8-0.4-1.1-0.9
	c-0.5-0.7-0.5-1.6-0.2-2.7c0.8-2.9,3.1-7.1,3.2-7.2l0.3-0.5l23.8,16.1l14.7,4.2c1.1,0.3,2,1.1,2.5,2.2l0,0c0.6,1.5,0.2,3.2-1,4.3
	c-2.7,2.4-8,6.5-13.5,7c-1.5,0.1-3.4,0.2-5.6,0.2C480,509.5,466.6,508.5,466.5,508.5L466.5,508.5L466.5,508.5z"/>
<path class="st4" d="M492.2,205.6l-66.5-2.8c0,0-8.4,31.9,2.2,65.2l12.9,200.3h31l29.3-206.6L492.2,205.6L492.2,205.6z"/>
<path class="st6" d="M485.2,336.5c-4.6,0-9.7-1.1-14.7-2.3c-3.7-0.8-7-1-9.6-1.2c-4-0.2-7.1-0.5-8.9-2.8c-1.7-2.3-1.7-6.2,0-13.9
	c2.3-10.2,7.4-26.6,13.7-40.1c8.1-17.4,15.9-25.4,23.1-23.7c9.7,2.2,13.6,18.4,15,27.9c2,13.2,1.8,28.9-0.4,39.1l0,0
	C500.4,332.9,493.5,336.4,485.2,336.5L485.2,336.5L485.2,336.5z M487,255.3c-5.3,0-11.9,7.8-18.6,22.2
	c-6.2,13.2-11.2,29.4-13.5,39.5c-1.5,6.5-1.6,10-0.5,11.5c0.9,1.2,3.3,1.4,6.7,1.6c2.7,0.2,6.1,0.4,10.1,1.3
	c15.7,3.5,25.5,4.8,29.3-12.5c4.1-18.5,1-60.4-12.3-63.3C487.8,255.4,487.4,255.3,487,255.3L487,255.3L487,255.3z"/>
<polygon class="st7" points="548.6,460.8 399.4,461.8 376.3,451.1 389.8,313.4 403.3,314.1 543.1,321.2 "/>
<polygon class="st8" points="399.4,461.8 376.3,451.1 389.8,313.4 403.3,314.1 "/>
<path class="st6" d="M487.5,311.1c-2.8,0-5.8-0.7-8.8-1.4c-2.2-0.5-4.2-0.6-5.7-0.7c-2.4-0.1-4.2-0.3-5.3-1.7c-1-1.4-1-3.7,0-8.3
	c1.4-6.1,4.4-15.9,8.2-23.9c4.8-10.4,9.5-15.1,13.8-14.1c5.8,1.3,8.1,11,9,16.6c1.2,7.9,1.1,17.2-0.3,23.3l0,0
	C496.5,308.9,492.4,311.1,487.5,311.1L487.5,311.1L487.5,311.1z M488.6,262.7c-3.2,0-7.1,4.6-11.1,13.2c-3.7,7.9-6.7,17.5-8,23.5
	c-0.9,3.9-1,6-0.3,6.8c0.5,0.7,2,0.8,4,0.9c1.6,0.1,3.6,0.2,6,0.8c9.3,2.1,15.2,2.9,17.5-7.4c2.5-11,0.6-36-7.3-37.8
	C489,262.7,488.8,262.7,488.6,262.7L488.6,262.7z"/>
<polygon class="st5" points="525.2,385.2 436.3,385.8 422.5,379.4 430.6,297.3 438.7,297.7 522,302 "/>
<polygon class="st8" points="436.3,385.8 422.5,379.4 430.6,297.3 438.7,297.7 "/>
<path id="uuid-2ebd868f-c256-4818-ab73-e4d3dd12d9e3-46-159" class="st3" d="M492.7,255.6c1.5,7.3-1.2,14-6.1,14.9
	s-10-4.3-11.5-11.6c-0.6-2.9-0.5-5.9,0.3-8.8l-5.9-31.1l15.2-2.4l4.2,30.9C490.9,249.9,492.1,252.7,492.7,255.6L492.7,255.6
	L492.7,255.6z"/>
<path class="st5" d="M433,71.4c0,0,22.3-2.8,24.9,3.8s33.9,164.9,33.9,164.9h-20.6L433,71.4L433,71.4L433,71.4z"/>
<polygon class="st3" points="278.3,105.3 256,112.7 256,80.5 276.3,80.5 "/>
<circle class="st3" cx="258.8" cy="67.1" r="22.3"/>
<path class="st4" d="M264.9,64.9c-3.7-0.1-6.2-3.9-7.6-7.3s-2.9-7.4-6.4-8.8c-2.8-1.2-7.8,6.7-10.1,4.6c-2.3-2.2-0.1-13.4,2.4-15.4
	s5.9-2.4,9-2.5c7.8-0.4,15.6,0.3,23.2,1.9c4.7,1,9.5,2.5,13,5.9c4.3,4.3,5.4,10.8,5.7,16.9c0.3,6.2,0,12.8-3.1,18.2
	c-3,5.4-9.4,9.5-15.5,8.1c-0.6-3.3,0-6.7,0.2-10.1c0.2-3.3,0-7-2.1-9.6s-6.4-3.7-8.8-1.4"/>
<path class="st4" d="M292.3,72.6c2.2-1.6,4.9-3,7.6-2.7c3,0.4,5.5,2.8,6.2,5.7s-0.1,6.1-1.9,8.4c-1.8,2.4-4.6,3.9-7.4,4.7
	c-1.7,0.4-3.5,0.6-5.1,0c-2.3-1-3.6-4-2.7-6.4"/>
<rect x="250" y="463.4" class="st3" width="20.9" height="29.7"/>
<path class="st4" d="M229.6,511.1c-2.2,0-4.2,0-5.6-0.2c-5.6-0.5-10.9-4.6-13.5-7c-1.2-1.1-1.6-2.8-1-4.3l0,0
	c0.4-1.1,1.3-1.9,2.4-2.2l14.7-4.2l23.8-16.1l0.3,0.5c0.1,0.2,2.4,4.4,3.2,7.2c0.3,1.1,0.2,2-0.2,2.7c-0.3,0.5-0.8,0.8-1.1,0.9
	c0.4,0.5,1.8,1.4,5.9,2c6.1,1,7.4-5.3,7.4-5.6l0-0.2l0.2-0.1c2.9-1.9,4.7-2.7,5.3-2.5c0.4,0.1,1,0.3,2.8,17.4
	c0.2,0.5,1.4,4.5,0.6,8.2c-0.9,4.1-18.8,2.7-22.4,2.4C252.2,510.2,238.8,511.1,229.6,511.1L229.6,511.1L229.6,511.1z"/>
<rect x="319.1" y="443.4" transform="matrix(0.8485 -0.5292 0.5292 0.8485 -192.5518 243.8124)" class="st3" width="20.9" height="29.7"/>
<path class="st4" d="M307,507c-2.5,0-4.7-0.3-6.3-0.6c-1.6-0.3-2.8-1.5-3.1-3.1l0,0c-0.2-1.1,0.1-2.3,0.9-3.1l10.2-11.3l11.7-26.2
	l0.5,0.3c0.2,0.1,4.4,2.4,6.6,4.4c0.8,0.8,1.2,1.6,1.2,2.4c0,0.6-0.2,1-0.5,1.4c0.6,0.2,2.2,0.2,6.1-1.4c5.7-2.4,3.4-8.4,3.3-8.7
	l-0.1-0.2l0.1-0.2c1.5-3.1,2.5-4.8,3.1-4.9c0.4-0.1,1-0.3,11.6,13.4c0.4,0.4,3.5,3.1,4.8,6.7c1.4,4-14.5,12.2-17.8,13.9
	c-0.1,0.1-16.8,12.2-23.6,15.7C313.1,506.6,309.9,507.1,307,507L307,507L307,507z"/>
<path class="st4" d="M286.4,215h-58.6l-5.3,54.5L245.7,471h29.9l-12-116.4l48.5,105.1l26.6-18.6L300.9,343c0,0,13.5-85.5,2.9-106.8
	S286.4,215,286.4,215L286.4,215L286.4,215z"/>
<polygon class="st7" points="315.5,218.3 222.4,218.3 250.4,97.9 290.9,97.9 "/>
<path id="uuid-f899ad7f-3d0f-4b30-ad3c-9c1473a48add-47-160" class="st3" d="M199.3,95.6c-1.5-7.3,1.2-14,6.1-14.9s10,4.3,11.4,11.6
	c0.6,2.9,0.5,5.9-0.3,8.8l5.9,31.1l-15.2,2.4l-4.2-30.9C201.1,101.2,199.9,98.5,199.3,95.6L199.3,95.6z"/>
<path class="st7" d="M289.9,97.9h-35.8L230,146.2l-9.1-36.2l-20,2.1c0,0,4.7,70.6,25.4,68.2C247,178,295.2,114.3,289.9,97.9
	L289.9,97.9L289.9,97.9z"/>
<path class="st6" d="M323.7,326.7c-2.8,0-5.8-0.7-8.8-1.4c-2.2-0.5-4.2-0.6-5.7-0.7c-2.4-0.1-4.2-0.3-5.3-1.7c-1-1.4-1-3.7,0-8.3
	c1.4-6.1,4.4-15.9,8.2-23.9c4.8-10.4,9.5-15.1,13.8-14.1c5.8,1.3,8.1,11,9,16.6c1.2,7.9,1.1,17.2-0.3,23.3l0,0
	C332.8,324.6,328.6,326.7,323.7,326.7L323.7,326.7L323.7,326.7z M324.8,278.4c-3.2,0-7.1,4.6-11.1,13.2c-3.7,7.9-6.7,17.5-8,23.5
	c-0.9,3.9-1,6-0.3,6.8c0.5,0.7,2,0.8,4,0.9c1.6,0.1,3.6,0.2,6,0.8c9.3,2.1,15.2,2.9,17.5-7.4c2.5-11,0.6-36-7.3-37.8
	C325.3,278.4,325,278.4,324.8,278.4L324.8,278.4z"/>
<polygon class="st5" points="361.5,400.9 272.6,401.5 258.8,395.1 266.8,313 274.9,313.4 358.2,317.6 "/>
<polygon class="st8" points="272.6,401.5 258.8,395.1 266.8,313 274.9,313.4 "/>
<path id="uuid-aa721d86-32e3-4ace-957f-0814f6d1eb89-48-161" class="st3" d="M329.9,281.4c1.5,7.3-1.2,14-6.1,14.9
	s-10-4.3-11.5-11.6c-0.6-2.9-0.5-5.9,0.3-8.8l-5.9-31.1l15.2-2.4l4.2,30.9C328.1,275.7,329.3,278.4,329.9,281.4L329.9,281.4z"/>
<path class="st7" d="M269.5,97.9c0,0,20.3-0.9,21.4,0c5.5,4.5,38.1,168,38.1,168h-20.6L269.5,97.9L269.5,97.9z"/>
</svg>
